<svg
					width="100%"
					height="100%"
					viewBox="0 0 1728 208"
					fill="none"
					xmlns="http://www.w3.org/2000/svg"
				>
					<rect
						x="276.559"
						width="69.1395"
						height="69.1958"
						fill="#fea8f1"
					></rect>
					<rect
						x="276.559"
						y="138.393"
						width="69.1395"
						height="69.1958"
						fill="#fea8f1"
					></rect>
					<rect
						x="276.559"
						y="69.2021"
						width="69.1395"
						height="69.1958"
						fill="white"
					></rect>
					<rect
						x="553.117"
						width="69.1395"
						height="69.1958"
						fill="#fea8f1"
					></rect>
					<rect
						x="553.117"
						y="138.393"
						width="69.1395"
						height="69.1958"
						fill="#fea8f1"
					></rect>
					<rect
						x="553.117"
						y="69.2021"
						width="69.1395"
						height="69.1958"
						fill="white"
					></rect>
					<rect
						x="829.676"
						width="69.1395"
						height="69.1958"
						fill="#fea8f1"
					></rect>
					<rect
						x="829.676"
						y="138.393"
						width="69.1395"
						height="69.1958"
						fill="#fea8f1"
					></rect>
					<rect
						x="829.676"
						y="69.2021"
						width="69.1395"
						height="69.1958"
						fill="white"
					></rect>
					<rect
						x="414.836"
						width="69.1395"
						height="69.1958"
						fill="#fea8f1"
					></rect>
					<rect
						x="414.836"
						y="138.393"
						width="69.1395"
						height="69.1958"
						fill="#fea8f1"
					></rect>
					<rect
						x="414.836"
						y="69.2021"
						width="69.1395"
						height="69.1958"
						fill="white"
					></rect>
					<rect
						x="691.395"
						width="69.1395"
						height="69.1958"
						fill="#fea8f1"
					></rect>
					<rect
						x="691.395"
						y="138.393"
						width="69.1395"
						height="69.1958"
						fill="#fea8f1"
					></rect>
					<rect
						x="691.395"
						y="69.2021"
						width="69.1395"
						height="69.1958"
						fill="white"
					></rect>
					<rect
						x="967.953"
						width="69.1395"
						height="69.1958"
						fill="#fea8f1"
					></rect>
					<rect
						x="967.953"
						y="138.393"
						width="69.1395"
						height="69.1958"
						fill="#fea8f1"
					></rect>
					<rect
						x="967.953"
						y="69.2021"
						width="69.1395"
						height="69.1958"
						fill="white"
					></rect>
					<rect
						x="345.699"
						width="69.1395"
						height="69.1958"
						fill="white"
					></rect>
					<rect
						x="345.699"
						y="138.393"
						width="69.1395"
						height="69.1958"
						fill="white"
					></rect>
					<rect
						x="345.699"
						y="69.2021"
						width="69.1395"
						height="69.1958"
						fill="#fea8f1"
					></rect>
					<rect
						x="622.258"
						width="69.1395"
						height="69.1958"
						fill="white"
					></rect>
					<rect
						x="622.258"
						y="138.393"
						width="69.1395"
						height="69.1958"
						fill="white"
					></rect>
					<rect
						x="622.258"
						y="69.2021"
						width="69.1395"
						height="69.1958"
						fill="#fea8f1"
					></rect>
					<rect
						x="898.816"
						width="69.1395"
						height="69.1958"
						fill="white"
					></rect>
					<rect
						x="898.816"
						y="138.393"
						width="69.1395"
						height="69.1958"
						fill="white"
					></rect>
					<rect
						x="898.816"
						y="69.2021"
						width="69.1395"
						height="69.1958"
						fill="#fea8f1"
					></rect>
					<rect
						x="483.977"
						width="69.1395"
						height="69.1958"
						fill="white"
					></rect>
					<rect
						x="483.977"
						y="138.393"
						width="69.1395"
						height="69.1958"
						fill="white"
					></rect>
					<rect
						x="483.977"
						y="69.2021"
						width="69.1395"
						height="69.1958"
						fill="#fea8f1"
					></rect>
					<rect
						x="760.535"
						width="69.1395"
						height="69.1958"
						fill="white"
					></rect>
					<rect
						x="760.535"
						y="138.393"
						width="69.1395"
						height="69.1958"
						fill="white"
					></rect>
					<rect
						x="760.535"
						y="69.2021"
						width="69.1395"
						height="69.1958"
						fill="#fea8f1"
					></rect>
					<rect
						x="1037.09"
						width="69.1395"
						height="69.1958"
						fill="white"
					></rect>
					<rect
						x="1037.09"
						y="138.393"
						width="69.1395"
						height="69.1958"
						fill="white"
					></rect>
					<rect
						x="1037.09"
						y="69.2021"
						width="69.1395"
						height="69.1958"
						fill="#fea8f1"
					></rect>
					<rect
						x="1106.23"
						width="69.1395"
						height="69.1958"
						fill="#fea8f1"
					></rect>
					<rect
						x="1106.23"
						y="138.393"
						width="69.1395"
						height="69.1958"
						fill="#fea8f1"
					></rect>
					<rect
						x="1106.23"
						y="69.2021"
						width="69.1395"
						height="69.1958"
						fill="white"
					></rect>
					<rect
						x="1244.51"
						width="69.1395"
						height="69.1958"
						fill="#fea8f1"
					></rect>
					<rect
						x="1244.51"
						y="138.393"
						width="69.1395"
						height="69.1958"
						fill="#fea8f1"
					></rect>
					<rect
						x="1244.51"
						y="69.2021"
						width="69.1395"
						height="69.1958"
						fill="white"
					></rect>
					<rect
						x="1175.37"
						width="69.1395"
						height="69.1958"
						fill="white"
					></rect>
					<rect
						x="1175.37"
						y="138.393"
						width="69.1395"
						height="69.1958"
						fill="white"
					></rect>
					<rect
						x="1175.37"
						y="69.2021"
						width="69.1395"
						height="69.1958"
						fill="#fea8f1"
					></rect>
					<rect
						x="1313.57"
						y="138.393"
						width="69.1395"
						height="69.1958"
						fill="white"
					></rect>
					<rect
						x="1313.57"
						y="69.2021"
						width="69.1395"
						height="69.1958"
						fill="#fea8f1"
					></rect>
					<rect
						x="1382.71"
						width="69.1395"
						height="69.1958"
						fill="#fea8f1"
					></rect>
					<rect
						x="1382.71"
						y="138.393"
						width="69.1395"
						height="69.1958"
						fill="#fea8f1"
					></rect>
					<rect
						x="1382.71"
						y="69.2021"
						width="69.1395"
						height="69.1958"
						fill="white"
					></rect>
					<rect
						x="1520.98"
						width="69.1395"
						height="69.1958"
						fill="#fea8f1"
					></rect>
					<rect
						x="1520.98"
						y="138.393"
						width="69.1395"
						height="69.1958"
						fill="#fea8f1"
					></rect>
					<rect
						x="1520.98"
						y="69.2021"
						width="69.1395"
						height="69.1958"
						fill="white"
					></rect>
					<rect
						x="1451.84"
						width="69.1395"
						height="69.1958"
						fill="white"
					></rect>
					<rect
						x="1589.93"
						width="69.1395"
						height="69.1958"
						fill="white"
					></rect>
					<rect
						x="1313.57"
						width="69.1395"
						height="69.1958"
						fill="white"
					></rect>
					<rect
						x="1451.84"
						y="138.393"
						width="69.1395"
						height="69.1958"
						fill="white"
					></rect>
					<rect
						x="1589.93"
						y="138.393"
						width="69.1395"
						height="69.1958"
						fill="white"
					></rect>
					<rect
						x="1451.84"
						y="69.2021"
						width="69.1395"
						height="69.1958"
						fill="#fea8f1"
					></rect>
					<rect
						x="1589.93"
						y="69.2021"
						width="69.1395"
						height="69.1958"
						fill="#fea8f1"
					></rect>
					<rect
						width="69.1395"
						height="69.1958"
						fill="#fea8f1"
					></rect>
					<rect
						y="138.393"
						width="69.1395"
						height="69.1958"
						fill="#fea8f1"
					></rect>
					<rect
						x="138.277"
						width="69.1395"
						height="69.1958"
						fill="#fea8f1"
					></rect>
					<rect
						x="138.277"
						y="138.393"
						width="69.1395"
						height="69.1958"
						fill="#fea8f1"
					></rect>
					<rect
						x="138.277"
						y="69.2041"
						width="69.1395"
						height="69.1958"
						fill="white"
					></rect>
					<rect
						y="69.2041"
						width="69.1395"
						height="69.1958"
						fill="white"
					></rect>
					<rect
						x="69.1406"
						width="69.1395"
						height="69.1958"
						fill="white"
					></rect>
					<rect
						x="69.1406"
						y="138.393"
						width="69.1395"
						height="69.1958"
						fill="white"
					></rect>
					<rect
						x="69.1406"
						y="69.2021"
						width="69.1395"
						height="69.1958"
						fill="#fea8f1"
					></rect>
					<rect
						x="207.418"
						width="69.1395"
						height="69.1958"
						fill="white"
					></rect>
					<rect
						x="207.418"
						y="138.393"
						width="69.1395"
						height="69.1958"
						fill="white"
					></rect>
					<rect
						x="207.418"
						y="69.2021"
						width="69.1395"
						height="69.1958"
						fill="#fea8f1"
					></rect>
					<rect
						x="1658.86"
						width="69.1395"
						height="69.1958"
						fill="#fea8f1"
					></rect>
					<rect
						x="1658.86"
						y="138.393"
						width="69.1395"
						height="69.1958"
						fill="#fea8f1"
					></rect>
					<rect
						x="1658.86"
						y="69.2021"
						width="69.1395"
						height="69.1958"
						fill="white"
					></rect>
				</svg>
